<svg width="85" height="85" viewBox="0 0 85 85" fill="none" xmlns="http://www.w3.org/2000/svg">
<rect width="85" height="85" fill="white"/>
<path d="M14.7671 41.2179V60.2845L42.4877 65.4925V23.9399" stroke="#58B310" stroke-width="3" stroke-linecap="round" stroke-linejoin="round"/>
<path d="M70.0577 41.7226V59.9516L42.4875 65.4925" stroke="#58B310" stroke-width="3" stroke-linecap="round" stroke-linejoin="round"/>
<path d="M19.3092 54.3008L24.5172 54.8551M50.9558 39.0911L74.6601 42.3566C75.028 42.4076 75.4028 42.3593 75.7457 42.2168C76.0886 42.0742 76.3872 41.8425 76.6105 41.5458C76.8337 41.249 76.9736 40.8979 77.0155 40.5289C77.0574 40.1599 76.9999 39.7864 76.8489 39.4471L70.0577 24.1613L42.4859 19.5075L14.7688 24.3844L8.16357 38.5794C8.01034 38.908 7.94558 39.271 7.97571 39.6324C8.00584 39.9938 8.12981 40.341 8.33536 40.6398C8.54091 40.9385 8.82091 41.1784 9.14764 41.3357C9.47438 41.4931 9.83654 41.5623 10.1983 41.5367L33.8176 39.8951C34.2881 39.8626 34.7408 39.7029 35.1276 39.4332C35.5143 39.1634 35.8205 38.7936 36.0135 38.3633L42.4859 23.9417L48.9547 37.6249C49.1398 38.0163 49.4195 38.3553 49.7686 38.6113C50.1177 38.8673 50.5269 39.0323 50.9558 39.0911Z" stroke="#58B310" stroke-width="3" stroke-linecap="round" stroke-linejoin="round"/>
</svg>
